<svg id="Tavole" xmlns="http://www.w3.org/2000/svg" viewBox="0 0 1500 600"><defs><style>.cls-1{fill:#1e789f;}.cls-2{fill:#0b2e4f;}.cls-3{fill:#818387;}</style></defs><path class="cls-1" d="M708.57,393H357.71a49.86,49.86,0,0,1-49.8-49.81V158.93a49.86,49.86,0,0,1,49.8-49.8H708.57v17H357.71a32.85,32.85,0,0,0-32.81,32.81V343.22A32.84,32.84,0,0,0,357.71,376H708.57Z"/><path class="cls-2" d="M1142.29,393H758.62V376h383.67a32.84,32.84,0,0,0,32.81-32.81V158.93a32.85,32.85,0,0,0-32.81-32.81H758.62v-17h383.67a49.86,49.86,0,0,1,49.8,49.8V343.22A49.86,49.86,0,0,1,1142.29,393Z"/><path class="cls-2" d="M408.18,193.91V310.12h-17V193.91Z"/><path class="cls-2" d="M445.2,310.12H428.37V193.91H445.2l63.16,95.21h-4.81V193.91h16.83V310.12H503.55l-63-95.22h4.65Z"/><path class="cls-2" d="M555,193.91V310.12H538V193.91Zm45,67.32H539V245.84h61.07Zm8.5-51.78H539.3V193.91h69.25Z"/><path class="cls-2" d="M725.06,251.93q0,17.64-7.14,31.18a53.38,53.38,0,0,1-19.8,21.24Q685.46,312,669,312.05t-29.17-7.7a53,53,0,0,1-19.72-21.16Q613,269.74,613,251.93q0-17.62,7.14-31.17a53.38,53.38,0,0,1,19.8-21.24q12.66-7.7,29-7.7,16.66,0,29.25,7.7a53.73,53.73,0,0,1,19.72,21.16Q725.06,234.14,725.06,251.93Zm-17.8,0q0-13.29-4.73-23.08a36.36,36.36,0,0,0-13.3-15.23,36.75,36.75,0,0,0-20.12-5.45,37.15,37.15,0,0,0-20.2,5.45,36.12,36.12,0,0,0-13.38,15.23q-4.74,9.78-4.73,23.08T635.53,275a35.36,35.36,0,0,0,13.38,15.31,37.54,37.54,0,0,0,20.2,5.37,36.75,36.75,0,0,0,20.12-5.45,36.28,36.28,0,0,0,13.3-15.31Q707.25,265.09,707.26,251.93Z"/><path class="cls-1" d="M792.38,312.05q-16.68,0-29.17-7.46a50.42,50.42,0,0,1-19.4-21q-6.9-13.54-6.89-31.5T744,220.52a51.68,51.68,0,0,1,19.8-21Q776.51,192,793.18,192a57.4,57.4,0,0,1,24.05,4.89A47,47,0,0,1,835,210.74a46.27,46.27,0,0,1,9.14,21.16H826a31.18,31.18,0,0,0-12-17.48q-8.82-6.24-21.32-6.25a36.75,36.75,0,0,0-20.12,5.45,35.78,35.78,0,0,0-13.22,15.23q-4.65,9.78-4.65,23.08T759.44,275a35.58,35.58,0,0,0,13.3,15.31,36.82,36.82,0,0,0,20,5.37q12.51,0,21.64-6.17a30.2,30.2,0,0,0,12.34-16.76h17.8a46.28,46.28,0,0,1-9.7,20.52,50.3,50.3,0,0,1-18.19,13.79A57.75,57.75,0,0,1,792.38,312.05Z"/><path class="cls-1" d="M930.93,310.12H859.59V193.91h71.18v15.54h-61.4l7.22-6.41v41h48.73v15.07H876.59V301l-7.22-6.58h61.56Z"/><path class="cls-1" d="M963,310.12H946V193.91h44.08q18.92,0,29.57,9.29t10.66,26q0,12-5.77,20.28a33,33,0,0,1-16.35,12.1l23.09,48.57h-18.6l-21.32-45.36H963ZM963,209v40.88h27.09q10.57,0,16.51-5.53t5.93-15q0-9.93-6-15.15T990.08,209Z"/><path class="cls-1" d="M1037,209.45V193.91h86.25v15.54Zm51.62-7.69V310.12h-17V201.76Z"/><path class="cls-3" d="M536.37,447.4a9.25,9.25,0,0,1-.08,1.27,2.58,2.58,0,0,1-.25.86,1.11,1.11,0,0,1-.42.48,1.06,1.06,0,0,1-.55.15H521.13v43a.89.89,0,0,1-.16.54,1,1,0,0,1-.53.36,5.6,5.6,0,0,1-1,.23,10,10,0,0,1-1.59.1,10.18,10.18,0,0,1-1.57-.1,5.54,5.54,0,0,1-1-.23,1.11,1.11,0,0,1-.54-.36,1,1,0,0,1-.15-.54v-43H500.6a1,1,0,0,1-.55-.15,1,1,0,0,1-.4-.48,3.16,3.16,0,0,1-.25-.86,6.74,6.74,0,0,1-.1-1.27,7,7,0,0,1,.1-1.28,3.38,3.38,0,0,1,.25-.9,1.08,1.08,0,0,1,.4-.5,1,1,0,0,1,.55-.15h34.47a1.06,1.06,0,0,1,.55.15,1.17,1.17,0,0,1,.42.5,2.77,2.77,0,0,1,.25.9A9.63,9.63,0,0,1,536.37,447.4Z"/><path class="cls-3" d="M548.9,493.12a.89.89,0,0,1-.16.54,1,1,0,0,1-.53.36,5.6,5.6,0,0,1-1,.23,10,10,0,0,1-1.58.1,10.23,10.23,0,0,1-1.58-.1,5.54,5.54,0,0,1-1-.23,1,1,0,0,1-.53-.36.89.89,0,0,1-.16-.54V445.57a.89.89,0,0,1,.17-.54,1.21,1.21,0,0,1,.58-.36,5.94,5.94,0,0,1,1-.23,9.5,9.5,0,0,1,1.52-.1,10,10,0,0,1,1.58.1,5.6,5.6,0,0,1,1,.23,1,1,0,0,1,.53.36.89.89,0,0,1,.16.54Z"/><path class="cls-3" d="M597.28,491.4a3,3,0,0,1-.25,1.3,2.63,2.63,0,0,1-.68.88,2.54,2.54,0,0,1-.93.5,3.62,3.62,0,0,1-1,.15h-2.18a7,7,0,0,1-1.8-.21,4,4,0,0,1-1.46-.76,7.75,7.75,0,0,1-1.39-1.52,19.45,19.45,0,0,1-1.47-2.45L571,461.11c-.8-1.45-1.59-3-2.39-4.57s-1.55-3.15-2.25-4.66h-.07c.05,1.84.09,3.72.11,5.63s0,3.82,0,5.71v29.9a.93.93,0,0,1-.16.52,1,1,0,0,1-.55.38,5.28,5.28,0,0,1-1,.23,9.94,9.94,0,0,1-1.59.1,10.08,10.08,0,0,1-1.6-.1,4.86,4.86,0,0,1-1-.23,1,1,0,0,1-.52-.38,1,1,0,0,1-.17-.52V447.4a2.55,2.55,0,0,1,.87-2.18,3.14,3.14,0,0,1,1.9-.65h3.24a8,8,0,0,1,1.92.19,4.13,4.13,0,0,1,1.38.63,5.84,5.84,0,0,1,1.19,1.23,16.59,16.59,0,0,1,1.2,2l11.62,21.75c.72,1.33,1.41,2.62,2.07,3.89s1.31,2.5,1.93,3.73,1.22,2.43,1.83,3.62,1.2,2.38,1.79,3.58h0q-.07-3-.09-6.3c0-2.18,0-4.28,0-6.3V445.68a.85.85,0,0,1,.16-.5,1.41,1.41,0,0,1,.54-.4,3.81,3.81,0,0,1,1-.25,14.64,14.64,0,0,1,1.64-.07,13.9,13.9,0,0,1,1.54.07,3.53,3.53,0,0,1,1,.25,1.4,1.4,0,0,1,.52.4.85.85,0,0,1,.16.5Z"/><path class="cls-3" d="M635.8,491.4a8.55,8.55,0,0,1-.08,1.21,2.49,2.49,0,0,1-.27.86,1.25,1.25,0,0,1-.44.49,1,1,0,0,1-.55.16H610.68a2.72,2.72,0,0,1-1.67-.6,2.45,2.45,0,0,1-.78-2.08V447.25a2.48,2.48,0,0,1,.78-2.09,2.77,2.77,0,0,1,1.67-.59h23.51a1,1,0,0,1,.55.15,1.16,1.16,0,0,1,.41.5,3.89,3.89,0,0,1,.24.86,6.68,6.68,0,0,1,.1,1.29,6.12,6.12,0,0,1-.1,1.2,3.28,3.28,0,0,1-.24.84,1.09,1.09,0,0,1-.41.48,1,1,0,0,1-.55.16H614.81v15.54h16.62a1,1,0,0,1,.56.17,1.65,1.65,0,0,1,.42.48,2.62,2.62,0,0,1,.25.84,9.41,9.41,0,0,1,.07,1.27,8.28,8.28,0,0,1-.07,1.19,2.43,2.43,0,0,1-.25.8,1.19,1.19,0,0,1-.42.44,1.16,1.16,0,0,1-.56.13H614.81v17.73h19.65a1,1,0,0,1,.55.16,1.34,1.34,0,0,1,.44.47,2.3,2.3,0,0,1,.27.85A9,9,0,0,1,635.8,491.4Z"/><path class="cls-3" d="M677.47,491.74a4.65,4.65,0,0,1,.59,1.34.77.77,0,0,1-.25.79,2.19,2.19,0,0,1-1.13.38,16.6,16.6,0,0,1-2.09.1c-.81,0-1.45,0-1.91-.06a4.29,4.29,0,0,1-1.09-.21,1.53,1.53,0,0,1-1-.92l-11-19.72-11.14,19.72a2.63,2.63,0,0,1-.42.57,1.48,1.48,0,0,1-.63.37,4.93,4.93,0,0,1-1.09.19c-.46,0-1.07.06-1.84.06a14.79,14.79,0,0,1-2-.1,1.77,1.77,0,0,1-1-.38.84.84,0,0,1-.19-.79,4.74,4.74,0,0,1,.6-1.34L655.37,469l-12.9-22a6.22,6.22,0,0,1-.6-1.36.75.75,0,0,1,.18-.8,1.83,1.83,0,0,1,1.07-.36c.51-.05,1.21-.08,2.11-.08s1.39,0,1.87.06a5.35,5.35,0,0,1,1.15.19,1.21,1.21,0,0,1,.61.38l.42.56,10.65,18.53,10.57-18.53a5,5,0,0,1,.38-.56,1.24,1.24,0,0,1,.56-.38,4.12,4.12,0,0,1,1-.19c.43,0,1-.06,1.76-.06a14.66,14.66,0,0,1,1.94.1,2.12,2.12,0,0,1,1.07.36.81.81,0,0,1,.25.78,4.54,4.54,0,0,1-.54,1.36l-12.87,21.87Z"/><path class="cls-3" d="M718.67,447.4a9.25,9.25,0,0,1-.08,1.27,2.58,2.58,0,0,1-.25.86,1.11,1.11,0,0,1-.42.48,1.07,1.07,0,0,1-.56.15H703.43v43a.89.89,0,0,1-.16.54,1,1,0,0,1-.53.36,5.6,5.6,0,0,1-1,.23,10,10,0,0,1-1.59.1,10.18,10.18,0,0,1-1.57-.1,5.35,5.35,0,0,1-1-.23,1.07,1.07,0,0,1-.54-.36,1,1,0,0,1-.15-.54v-43H682.9a1,1,0,0,1-.55-.15,1,1,0,0,1-.4-.48,3.16,3.16,0,0,1-.25-.86,6.74,6.74,0,0,1-.1-1.27,7,7,0,0,1,.1-1.28,3.38,3.38,0,0,1,.25-.9,1.08,1.08,0,0,1,.4-.5,1,1,0,0,1,.55-.15h34.46a1.07,1.07,0,0,1,.56.15,1.17,1.17,0,0,1,.42.5,2.77,2.77,0,0,1,.25.9A9.63,9.63,0,0,1,718.67,447.4Z"/><path class="cls-3" d="M756.19,491.78a4.52,4.52,0,0,1,.33,1.36.94.94,0,0,1-.29.79,1.81,1.81,0,0,1-1,.34,18.87,18.87,0,0,1-1.9.08q-1.19,0-1.89-.06a4.23,4.23,0,0,1-1.07-.19,1.06,1.06,0,0,1-.54-.37,3,3,0,0,1-.33-.57l-4.25-12.06h-20.6L720.58,493a1.92,1.92,0,0,1-.3.59,1.45,1.45,0,0,1-.56.42,3.15,3.15,0,0,1-1,.25,16.15,16.15,0,0,1-1.74.08,12.93,12.93,0,0,1-1.82-.1,1.78,1.78,0,0,1-1-.36,1,1,0,0,1-.27-.79,5.32,5.32,0,0,1,.33-1.36l16.62-46a1.93,1.93,0,0,1,.4-.69,1.66,1.66,0,0,1,.73-.42,5.66,5.66,0,0,1,1.22-.21c.5,0,1.13-.06,1.9-.06s1.49,0,2,.06a6.29,6.29,0,0,1,1.3.21,1.65,1.65,0,0,1,.76.44,2.17,2.17,0,0,1,.43.71Zm-21.32-40.62h0l-8.54,24.69h17.23Z"/><path class="cls-3" d="M819.41,451.31a8.2,8.2,0,0,1-.08,1.28,3.77,3.77,0,0,1-.22.92,1.15,1.15,0,0,1-.39.52.89.89,0,0,1-.5.15,3.47,3.47,0,0,1-1.53-.73,23.54,23.54,0,0,0-2.87-1.6,26,26,0,0,0-4.31-1.61,21.27,21.27,0,0,0-6-.73,17.52,17.52,0,0,0-7.35,1.49,16,16,0,0,0-5.52,4.14,18.46,18.46,0,0,0-3.46,6.28,26.93,26.93,0,0,0,.11,16.31,17.85,17.85,0,0,0,3.66,6.2,15.19,15.19,0,0,0,5.57,3.83,18.84,18.84,0,0,0,7.1,1.3,20.23,20.23,0,0,0,4.66-.55,17.35,17.35,0,0,0,4.38-1.67V472.41H801.22a1,1,0,0,1-1-.65,4.73,4.73,0,0,1-.33-2,8.84,8.84,0,0,1,.08-1.25,2.53,2.53,0,0,1,.25-.84,1.22,1.22,0,0,1,.4-.48,1,1,0,0,1,.57-.15H817a2.48,2.48,0,0,1,.84.15,2.43,2.43,0,0,1,.77.46,2.11,2.11,0,0,1,.54.84,3.87,3.87,0,0,1,.19,1.23v18.88a4,4,0,0,1-.35,1.72,3,3,0,0,1-1.45,1.28c-.74.37-1.7.77-2.87,1.21a35.73,35.73,0,0,1-3.64,1.11,35,35,0,0,1-3.79.69,32.52,32.52,0,0,1-3.79.23A28,28,0,0,1,793.14,493a20.9,20.9,0,0,1-7.63-5.08,22,22,0,0,1-4.77-7.88,30.27,30.27,0,0,1-1.65-10.27,30.6,30.6,0,0,1,1.78-10.68,23.44,23.44,0,0,1,5-8.16,22.54,22.54,0,0,1,7.77-5.22,26.3,26.3,0,0,1,10.05-1.86,27.16,27.16,0,0,1,5.32.5,33.19,33.19,0,0,1,4.43,1.17,17.54,17.54,0,0,1,3.25,1.45,10.44,10.44,0,0,1,1.82,1.28,2.79,2.79,0,0,1,.69,1.15A7,7,0,0,1,819.41,451.31Z"/><path class="cls-3" d="M862.56,493.12a1.13,1.13,0,0,1-.12.54.87.87,0,0,1-.49.38,4.45,4.45,0,0,1-1.07.23,17.7,17.7,0,0,1-1.84.08,14.1,14.1,0,0,1-1.63-.08,3.3,3.3,0,0,1-1-.25,1.31,1.31,0,0,1-.6-.48,3,3,0,0,1-.36-.76l-4.56-11.68c-.53-1.33-1.09-2.55-1.66-3.66a11.87,11.87,0,0,0-2.05-2.87,8.57,8.57,0,0,0-2.8-1.88,10.16,10.16,0,0,0-3.87-.67h-4.4v21.1a.89.89,0,0,1-.17.54,1.17,1.17,0,0,1-.54.36,4.86,4.86,0,0,1-1,.23,12.69,12.69,0,0,1-3.18,0,5.6,5.6,0,0,1-1-.23,1,1,0,0,1-.53-.36,1,1,0,0,1-.15-.54V447.25a2.48,2.48,0,0,1,.78-2.09,2.75,2.75,0,0,1,1.67-.59H842.5c1.25,0,2.29,0,3.12.1s1.57.13,2.24.21a18.74,18.74,0,0,1,5.07,1.57,12.1,12.1,0,0,1,3.7,2.71,10.93,10.93,0,0,1,2.23,3.78,14,14,0,0,1,.75,4.69,13.75,13.75,0,0,1-.67,4.46,10.94,10.94,0,0,1-1.93,3.48,12.65,12.65,0,0,1-3,2.63,19.39,19.39,0,0,1-3.94,1.87,9.24,9.24,0,0,1,2.22,1.36,12.12,12.12,0,0,1,1.86,2,19.25,19.25,0,0,1,1.62,2.64c.51,1,1,2.12,1.54,3.37l4.44,10.92c.35.92.58,1.56.69,1.93A3.59,3.59,0,0,1,862.56,493.12Zm-9.92-34.8a8.84,8.84,0,0,0-1.3-4.92,7.32,7.32,0,0,0-4.36-2.89,12.6,12.6,0,0,0-2.17-.39c-.8-.07-1.85-.11-3.16-.11H836.1V466.7h6.43a14.29,14.29,0,0,0,4.5-.63,8.84,8.84,0,0,0,3.16-1.76,6.91,6.91,0,0,0,1.86-2.66A9.25,9.25,0,0,0,852.64,458.32Z"/><path class="cls-3" d="M911,468.77a38.63,38.63,0,0,1-1.41,10.84,22.9,22.9,0,0,1-4.23,8.21A18.61,18.61,0,0,1,898.3,493a25.09,25.09,0,0,1-9.92,1.82,25.45,25.45,0,0,1-9.66-1.67,17,17,0,0,1-6.74-4.84,20.66,20.66,0,0,1-4-7.89,41.13,41.13,0,0,1-1.3-10.84A37.22,37.22,0,0,1,868.13,459a22.07,22.07,0,0,1,4.25-8.14,18.84,18.84,0,0,1,7.08-5.17,28.14,28.14,0,0,1,19.45-.17,17.32,17.32,0,0,1,6.76,4.8,20.41,20.41,0,0,1,4,7.82A39.1,39.1,0,0,1,911,468.77Zm-7,.46a38.57,38.57,0,0,0-.74-7.83,18,18,0,0,0-2.49-6.28,12.11,12.11,0,0,0-4.64-4.16,15.71,15.71,0,0,0-7.19-1.49,14.7,14.7,0,0,0-7.19,1.61,13.44,13.44,0,0,0-4.72,4.29,17.74,17.74,0,0,0-2.61,6.26,35.24,35.24,0,0,0-.78,7.52,41.06,41.06,0,0,0,.73,8,18,18,0,0,0,2.44,6.34,11.82,11.82,0,0,0,4.61,4.14,15.91,15.91,0,0,0,7.25,1.47,15.06,15.06,0,0,0,7.27-1.61,13.11,13.11,0,0,0,4.74-4.34,18.41,18.41,0,0,0,2.56-6.34A36.6,36.6,0,0,0,904,469.23Z"/><path class="cls-3" d="M956.59,475.82a23,23,0,0,1-1.32,8.06,16.58,16.58,0,0,1-3.77,6,16,16,0,0,1-6,3.71,23.7,23.7,0,0,1-8,1.27,22.32,22.32,0,0,1-7.46-1.19,15.75,15.75,0,0,1-5.79-3.51,15.37,15.37,0,0,1-3.71-5.8,22.83,22.83,0,0,1-1.3-8V445.57a1,1,0,0,1,.15-.54,1,1,0,0,1,.54-.36,5.21,5.21,0,0,1,1-.23,12.69,12.69,0,0,1,3.18,0,5.06,5.06,0,0,1,1,.23,1,1,0,0,1,.51.36,1,1,0,0,1,.16.54v29.94a19.34,19.34,0,0,0,.84,6,11.35,11.35,0,0,0,2.43,4.27,10.2,10.2,0,0,0,3.83,2.57,14,14,0,0,0,5,.86,14.32,14.32,0,0,0,5.12-.85,9.78,9.78,0,0,0,3.79-2.52,11.45,11.45,0,0,0,2.37-4.18,18.54,18.54,0,0,0,.82-5.82V445.57a.89.89,0,0,1,.16-.54,1,1,0,0,1,.53-.36,5.6,5.6,0,0,1,1-.23,10,10,0,0,1,1.59-.1,9.73,9.73,0,0,1,1.55.1,4.86,4.86,0,0,1,1,.23,1.17,1.17,0,0,1,.54.36.89.89,0,0,1,.17.54Z"/><path class="cls-3" d="M997.79,459.08a17.62,17.62,0,0,1-1.22,6.7,14.28,14.28,0,0,1-3.51,5.1,15.78,15.78,0,0,1-5.59,3.25,24.07,24.07,0,0,1-7.9,1.15h-5.63v17.84a.84.84,0,0,1-.18.54,1.13,1.13,0,0,1-.53.36,5,5,0,0,1-1,.23,12.61,12.61,0,0,1-3.17,0,5.41,5.41,0,0,1-1-.23,1.07,1.07,0,0,1-.54-.36,1,1,0,0,1-.15-.54V447.4a2.68,2.68,0,0,1,.8-2.18,2.83,2.83,0,0,1,1.8-.65h10.61c1.07,0,2.1,0,3.08.13a29.65,29.65,0,0,1,3.49.58,14.46,14.46,0,0,1,4.1,1.64A12.58,12.58,0,0,1,997,454,16,16,0,0,1,997.79,459.08Zm-6.93.54a10.35,10.35,0,0,0-1.13-5.06,7.81,7.81,0,0,0-2.79-3,9.31,9.31,0,0,0-3.45-1.26A23.1,23.1,0,0,0,980,450h-6.09v19.87h5.93a13.6,13.6,0,0,0,5-.77,9.15,9.15,0,0,0,3.31-2.12,8.82,8.82,0,0,0,2-3.26A11.9,11.9,0,0,0,990.86,459.62Z"/></svg>